<svg xmlns="http://www.w3.org/2000/svg" viewBox="0 0 35 35" class="u-fill--white u-position--absolute u-is-centered--total" width="30px"><path d="M4.7 3.6c-.2 0-.5.1-.8.2l-3.1 1c-.4.2-.6.6-.6 1.1v24.7c0 .6.1.8.8.8h5.4c.6 0 .8-.2.8-.8v-19c.7-.7 2.5-2.2 4.8-2.2 2.1 0 2.3 2.5 2.3 4.5v16.7c0 .6.1.8.8.8h5.4c.6 0 .8-.2.8-.8v-19c.7-.7 2.5-2.2 4.8-2.2 2.1 0 2.3 2.5 2.3 4.5v16.7c0 .6.1.8.8.8H34c.6 0 .8-.2.8-.8V12.3c0-4.7-1.2-8.6-6.3-8.6-4.4 0-6.8 2.3-8.4 3.7-.7-2.3-3.2-3.7-5.5-3.7-4.3 0-6.7 2.3-8.3 3.7C5.6 5 5.2 3.8 4.7 3.6z"></path></svg>